<svg version="1.1" id="Layer_1" xmlns="http://www.w3.org/2000/svg" xmlns:xlink="http://www.w3.org/1999/xlink" x="0px" y="0px"
	 width="100%" viewBox="0 0 500 500" enable-background="new 0 0 500 500" xml:space="preserve">
<path fill="#000000" opacity="1.000000" stroke="none" 
	d="
M281.000000,501.000000 
	C187.333359,501.000000 94.166710,501.000000 1.000050,501.000000 
	C1.000033,334.333405 1.000033,167.666794 1.000017,1.000139 
	C167.666565,1.000093 334.333130,1.000093 500.999756,1.000046 
	C500.999847,167.666519 500.999847,334.333038 500.999939,500.999786 
	C427.833344,501.000000 354.666656,501.000000 281.000000,501.000000 
M217.995819,226.321945 
	C217.781189,224.865524 217.801010,223.325424 217.315735,221.965591 
	C212.397079,208.182709 204.643204,196.235855 192.325699,188.159729 
	C186.218216,184.155258 178.914993,181.974533 171.721756,178.276108 
	C168.249756,177.570465 164.794037,176.391174 161.301910,176.271118 
	C156.172623,176.094757 151.017319,176.675293 145.252945,176.990585 
	C144.842407,177.042862 144.431885,177.095154 143.262070,177.009216 
	C142.111038,177.328033 140.960022,177.646866 139.029846,177.977402 
	C131.052826,181.462540 122.504112,184.043106 115.229980,188.640411 
	C103.719261,195.915253 96.165619,206.820663 91.307426,220.290512 
	C90.227791,224.875153 88.526749,229.419693 88.227531,234.054718 
	C87.862442,239.710007 88.674980,245.441330 89.022858,251.590240 
	C89.022858,251.590240 89.167030,252.019333 89.029755,252.795471 
	C89.340759,254.233643 89.651764,255.671814 89.994484,257.909943 
	C92.611519,270.492493 98.963181,280.884644 108.199326,289.733521 
	C125.349823,306.164886 145.861832,311.044342 168.564316,306.544006 
	C186.593903,302.970032 200.661407,292.604156 210.198502,276.985107 
	C213.830139,271.037537 215.313889,263.778473 218.112335,256.451599 
	C220.744873,249.318893 223.377426,242.186172 226.009964,235.053452 
	C227.051529,244.658844 227.125549,253.976273 227.013046,263.291443 
	C226.971298,266.746216 227.504105,268.967957 231.803741,269.045074 
	C235.969666,269.119812 237.745361,267.196442 237.769974,263.510071 
	C237.855621,250.685471 237.902313,237.856903 237.654831,225.035797 
	C237.568832,220.581238 235.614319,217.747955 230.145508,218.019531 
	C222.156708,218.416229 221.186066,218.789154 217.995819,226.321945 
M255.493851,244.311234 
	C255.362488,247.126297 255.108627,249.941879 255.120697,252.756332 
	C255.176544,265.756866 262.697906,271.755005 275.528961,269.106201 
	C282.174286,267.734344 285.619690,263.813629 285.844086,257.157013 
	C285.967438,253.498077 285.904480,249.831894 285.882507,246.169235 
	C285.830994,237.592178 281.739746,233.061905 272.977844,232.309875 
	C264.582886,231.589340 256.697418,235.146240 255.493851,244.311234 
M404.475677,238.379562 
	C401.178436,233.213364 395.624634,232.170120 390.487000,232.433914 
	C382.334106,232.852539 377.104919,234.273010 375.764069,242.095947 
	C374.767181,247.912384 375.198517,254.007309 375.375977,259.966797 
	C375.418396,261.390717 376.809723,262.921844 377.878967,264.142273 
	C382.503326,269.420502 393.438324,271.064209 400.936462,267.153381 
	C402.935028,266.110962 404.307739,263.402283 405.311035,261.164185 
	C405.675293,260.351654 404.192780,257.639526 403.432861,257.588684 
	C400.781616,257.411438 398.037720,257.829315 395.406433,258.386536 
	C393.196381,258.854553 390.227661,261.059418 389.147705,260.296661 
	C387.531189,259.154968 387.275940,256.085938 386.089844,252.887878 
	C390.564240,252.887878 393.527557,252.876053 396.490784,252.890045 
	C406.183228,252.935776 407.679016,251.058395 405.532257,241.476807 
	C405.351685,240.671005 405.040619,239.894470 404.475677,238.379562 
M307.258087,233.283569 
	C300.670502,232.072678 297.912384,234.925552 300.102203,241.106766 
	C302.912170,249.038345 305.894592,256.924316 309.246521,264.637054 
	C310.041443,266.466156 312.399841,268.141754 314.398071,268.802979 
	C317.675415,269.887482 319.005951,267.187927 319.980103,264.576691 
	C322.806458,257.000488 325.664734,249.435745 328.410645,241.830444 
	C328.846588,240.622971 329.219208,239.066284 328.821198,237.958420 
	C328.179260,236.171585 327.079926,233.481354 325.796631,233.248184 
	C323.968079,232.915909 321.275696,233.949097 319.915131,235.340500 
	C318.421844,236.867661 317.934418,239.432938 317.168335,241.602249 
	C316.285950,244.100830 315.578217,246.661072 314.773346,249.263336 
	C312.359161,243.811493 310.114044,238.741470 307.258087,233.283569 
M356.909973,248.530273 
	C356.904999,245.540375 357.108429,242.531799 356.842712,239.565247 
	C356.504089,235.785049 354.895569,232.727783 350.476288,232.826065 
	C346.144165,232.922424 345.086823,235.954788 345.079163,239.637817 
	C345.063599,247.112549 345.026764,254.587570 345.075897,262.061951 
	C345.099091,265.590454 345.647339,268.823090 350.290253,268.953888 
	C354.190399,269.063721 356.707031,266.552521 356.865143,261.974182 
	C357.008362,257.826385 356.903473,253.670029 356.909973,248.530273 
M352.870331,229.583771 
	C355.635986,228.275131 358.095032,226.306793 356.609528,223.113434 
	C355.660065,221.072418 353.342621,218.761292 351.282043,218.347885 
	C347.858337,217.660995 345.153320,219.637146 345.055542,223.644821 
	C344.938446,228.444397 347.735565,230.048904 352.870331,229.583771 
z"/>
<path fill="#5DCA97" opacity="1.000000" stroke="none" 
	d="
M89.167030,252.019333 
	C89.167030,252.019333 89.022858,251.590240 89.048843,250.936951 
	C90.044724,240.154877 91.014610,230.026123 91.984497,219.897354 
	C96.165619,206.820663 103.719261,195.915253 115.229980,188.640411 
	C122.504112,184.043106 131.052826,181.462540 139.785583,177.973175 
	C141.701324,177.695114 142.861343,177.421280 144.021347,177.147430 
	C144.431885,177.095154 144.842407,177.042862 145.935150,177.161774 
	C151.575562,177.550919 156.537888,178.004425 161.490753,177.917709 
	C166.049683,177.837891 167.789459,179.341461 165.688385,183.902298 
	C164.966125,183.998291 164.548645,184.020844 163.791351,184.063812 
	C162.623978,184.419098 161.796417,184.753983 160.986252,185.047211 
	C161.003647,185.005554 161.086899,185.040421 160.807617,185.084641 
	C160.012558,185.352600 159.496811,185.576340 158.602097,185.886154 
	C151.713669,187.981491 145.209305,190.007492 138.693405,191.995804 
	C130.476242,194.503250 122.230873,196.920181 114.036652,199.499969 
	C110.856384,200.501190 110.034889,202.578400 112.044373,205.729889 
	C124.178490,202.293594 136.226624,198.881668 149.608887,195.091904 
	C148.538910,200.524994 147.762619,204.455475 146.990997,208.386871 
	C144.014114,223.553925 141.038467,238.721237 138.062820,253.888535 
	C136.373260,262.500488 134.229889,271.056549 133.158249,279.744781 
	C132.464035,285.373108 134.931885,286.910278 140.337418,285.288879 
	C154.171768,281.139404 167.984451,276.914673 181.762360,272.581909 
	C185.341202,271.456451 188.760498,269.823669 192.662292,268.513306 
	C200.423706,269.474091 201.553818,268.507782 201.674286,261.195129 
	C201.707001,259.209595 201.683685,257.223145 201.683884,255.237091 
	C201.684509,248.755234 201.684113,242.273361 201.684113,235.791504 
	C202.176483,235.719971 202.668854,235.648438 203.161224,235.576920 
	C204.962906,240.618988 207.004730,245.591232 208.497025,250.723267 
	C209.915497,255.601517 212.448181,258.221924 217.776550,257.117126 
	C215.313889,263.778473 213.830139,271.037537 210.198502,276.985107 
	C200.661407,292.604156 186.593903,302.970032 168.564316,306.544006 
	C145.861832,311.044342 125.349823,306.164886 108.199326,289.733521 
	C98.963181,280.884644 92.611519,270.492493 89.981262,257.131958 
	C89.701035,254.909088 89.434029,253.464218 89.167030,252.019333 
z"/>
<path fill="#5CCA98" opacity="1.000000" stroke="none" 
	d="
M172.152740,178.968719 
	C178.914993,181.974533 186.218216,184.155258 192.325699,188.159729 
	C204.643204,196.235855 212.397079,208.182709 217.315735,221.965591 
	C217.801010,223.325424 217.781189,224.865524 218.128937,226.991013 
	C217.216507,231.665695 216.170975,235.671295 215.125443,239.676910 
	C212.052826,234.581833 210.395172,229.568436 208.488403,224.651642 
	C206.157715,218.641800 203.004684,217.260696 195.702667,218.760559 
	C190.556137,219.817657 191.511002,224.034698 191.323471,227.530975 
	C191.145462,230.849289 191.332825,234.185394 191.256592,237.511322 
	C191.062592,245.975769 190.811050,254.438904 190.140045,262.898376 
	C185.829727,263.944580 181.961868,264.994934 177.691193,266.038300 
	C175.533447,266.719025 173.778519,267.406769 172.020477,268.062378 
	C172.017380,268.030273 172.079727,268.046875 171.683655,268.036865 
	C169.185532,268.729767 167.083496,269.432709 164.993927,270.085632 
	C165.006393,270.035645 165.106277,270.061035 164.746902,270.042053 
	C162.606781,270.716095 160.826019,271.409149 159.038727,272.069092 
	C159.032166,272.036011 159.093735,272.063599 158.789001,271.903320 
	C158.245636,270.404083 157.927521,269.073425 157.785477,267.724274 
	C157.516022,265.165070 157.347458,262.595215 157.182419,259.632629 
	C158.770111,251.814621 160.312408,244.393723 162.125427,236.702423 
	C162.914276,232.924606 163.432373,229.417221 163.955902,225.942673 
	C163.961319,225.975525 163.894791,225.972488 164.231873,225.788361 
	C165.039459,222.018600 165.509964,218.432968 165.990372,214.541656 
	C166.057449,213.834183 166.114624,213.432404 166.435806,212.764740 
	C167.125610,209.625732 167.551437,206.752579 167.998718,203.659607 
	C168.020203,203.439789 168.152542,203.018341 168.338074,202.788727 
	C168.657227,201.338043 168.790833,200.116943 168.953995,198.584396 
	C169.044037,197.861374 169.104538,197.449799 169.280594,196.847977 
	C169.328644,196.105499 169.261124,195.553268 169.161407,194.751190 
	C169.395126,194.313690 169.661057,194.126022 170.167206,193.692627 
	C172.487457,190.807220 172.180969,188.329178 169.931229,186.005585 
	C169.960327,186.026489 169.917038,186.083572 169.909424,185.713104 
	C169.434479,182.787994 168.596054,180.102295 172.152740,178.968719 
z"/>
<path fill="#180AA3" opacity="1.000000" stroke="none" 
	d="
M190.582520,262.902557 
	C190.811050,254.438904 191.062592,245.975769 191.256592,237.511322 
	C191.332825,234.185394 191.145462,230.849289 191.323471,227.530975 
	C191.511002,224.034698 190.556137,219.817657 195.702667,218.760559 
	C203.004684,217.260696 206.157715,218.641800 208.488403,224.651642 
	C210.395172,229.568436 212.052826,234.581833 215.125443,239.676910 
	C216.170975,235.671295 217.216507,231.665695 218.310013,227.367477 
	C221.186066,218.789154 222.156708,218.416229 230.145508,218.019531 
	C235.614319,217.747955 237.568832,220.581238 237.654831,225.035797 
	C237.902313,237.856903 237.855621,250.685471 237.769974,263.510071 
	C237.745361,267.196442 235.969666,269.119812 231.803741,269.045074 
	C227.504105,268.967957 226.971298,266.746216 227.013046,263.291443 
	C227.125549,253.976273 227.051529,244.658844 226.009964,235.053452 
	C223.377426,242.186172 220.744873,249.318893 217.944443,256.784363 
	C212.448181,258.221924 209.915497,255.601517 208.497025,250.723267 
	C207.004730,245.591232 204.962906,240.618988 203.161224,235.576920 
	C202.668854,235.648438 202.176483,235.719971 201.684113,235.791504 
	C201.684113,242.273361 201.684509,248.755234 201.683884,255.237091 
	C201.683685,257.223145 201.707001,259.209595 201.674286,261.195129 
	C201.553818,268.507782 200.423706,269.474091 192.537262,268.223419 
	C191.529510,266.196930 191.056015,264.549744 190.582520,262.902557 
z"/>
<path fill="#1905A3" opacity="1.000000" stroke="none" 
	d="
M255.681213,243.929718 
	C256.697418,235.146240 264.582886,231.589340 272.977844,232.309875 
	C281.739746,233.061905 285.830994,237.592178 285.882507,246.169235 
	C285.904480,249.831894 285.967438,253.498077 285.844086,257.157013 
	C285.619690,263.813629 282.174286,267.734344 275.528961,269.106201 
	C262.697906,271.755005 255.176544,265.756866 255.120697,252.756332 
	C255.108627,249.941879 255.362488,247.126297 255.681213,243.929718 
M266.954437,254.258087 
	C266.956940,254.754379 266.762817,255.385056 266.994843,255.724487 
	C268.225555,257.525055 269.340607,260.467896 270.909668,260.755310 
	C274.308746,261.377960 275.074829,258.461823 275.040497,255.520081 
	C275.003876,252.377396 275.437805,249.160843 274.884155,246.118912 
	C274.566315,244.372604 272.695679,242.908905 271.524017,241.317978 
	C270.009552,243.009323 267.892090,244.474167 267.147980,246.454910 
	C266.384521,248.487274 266.963806,251.024048 266.954437,254.258087 
z"/>
<path fill="#1905A3" opacity="1.000000" stroke="none" 
	d="
M404.632935,238.741943 
	C405.040619,239.894470 405.351685,240.671005 405.532257,241.476807 
	C407.679016,251.058395 406.183228,252.935776 396.490784,252.890045 
	C393.527557,252.876053 390.564240,252.887878 386.089844,252.887878 
	C387.275940,256.085938 387.531189,259.154968 389.147705,260.296661 
	C390.227661,261.059418 393.196381,258.854553 395.406433,258.386536 
	C398.037720,257.829315 400.781616,257.411438 403.432861,257.588684 
	C404.192780,257.639526 405.675293,260.351654 405.311035,261.164185 
	C404.307739,263.402283 402.935028,266.110962 400.936462,267.153381 
	C393.438324,271.064209 382.503326,269.420502 377.878967,264.142273 
	C376.809723,262.921844 375.418396,261.390717 375.375977,259.966797 
	C375.198517,254.007309 374.767181,247.912384 375.764069,242.095947 
	C377.104919,234.273010 382.334106,232.852539 390.487000,232.433914 
	C395.624634,232.170120 401.178436,233.213364 404.632935,238.741943 
M389.715912,241.110977 
	C386.533875,242.122955 386.442474,244.166077 387.672119,246.743759 
	C390.083344,246.743759 392.315613,246.743759 394.609192,246.743759 
	C395.444458,242.995300 394.071564,241.205917 389.715912,241.110977 
z"/>
<path fill="#1905A2" opacity="1.000000" stroke="none" 
	d="
M307.563507,233.477509 
	C310.114044,238.741470 312.359161,243.811493 314.773346,249.263336 
	C315.578217,246.661072 316.285950,244.100830 317.168335,241.602249 
	C317.934418,239.432938 318.421844,236.867661 319.915131,235.340500 
	C321.275696,233.949097 323.968079,232.915909 325.796631,233.248184 
	C327.079926,233.481354 328.179260,236.171585 328.821198,237.958420 
	C329.219208,239.066284 328.846588,240.622971 328.410645,241.830444 
	C325.664734,249.435745 322.806458,257.000488 319.980103,264.576691 
	C319.005951,267.187927 317.675415,269.887482 314.398071,268.802979 
	C312.399841,268.141754 310.041443,266.466156 309.246521,264.637054 
	C305.894592,256.924316 302.912170,249.038345 300.102203,241.106766 
	C297.912384,234.925552 300.670502,232.072678 307.563507,233.477509 
z"/>
<path fill="#1905A3" opacity="1.000000" stroke="none" 
	d="
M356.908966,249.023865 
	C356.903473,253.670029 357.008362,257.826385 356.865143,261.974182 
	C356.707031,266.552521 354.190399,269.063721 350.290253,268.953888 
	C345.647339,268.823090 345.099091,265.590454 345.075897,262.061951 
	C345.026764,254.587570 345.063599,247.112549 345.079163,239.637817 
	C345.086823,235.954788 346.144165,232.922424 350.476288,232.826065 
	C354.895569,232.727783 356.504089,235.785049 356.842712,239.565247 
	C357.108429,242.531799 356.904999,245.540375 356.908966,249.023865 
z"/>
<path fill="#19079A" opacity="1.000000" stroke="none" 
	d="
M352.489319,229.666519 
	C347.735565,230.048904 344.938446,228.444397 345.055542,223.644821 
	C345.153320,219.637146 347.858337,217.660995 351.282043,218.347885 
	C353.342621,218.761292 355.660065,221.072418 356.609528,223.113434 
	C358.095032,226.306793 355.635986,228.275131 352.489319,229.666519 
z"/>
<path fill="#6EC099" opacity="1.000000" stroke="none" 
	d="
M171.937256,178.622406 
	C168.596054,180.102295 169.434479,182.787994 169.603912,185.579559 
	C168.201721,185.153946 167.097443,184.491409 165.993164,183.828857 
	C167.789459,179.341461 166.049683,177.837891 161.490753,177.917709 
	C156.537888,178.004425 151.575562,177.550919 146.245239,177.133179 
	C151.017319,176.675293 156.172623,176.094757 161.301910,176.271118 
	C164.794037,176.391174 168.249756,177.570465 171.937256,178.622406 
z"/>
<path fill="#6EC099" opacity="1.000000" stroke="none" 
	d="
M91.645966,220.093933 
	C91.014610,230.026123 90.044724,240.154877 89.026520,250.711700 
	C88.674980,245.441330 87.862442,239.710007 88.227531,234.054718 
	C88.526749,229.419693 90.227791,224.875153 91.645966,220.093933 
z"/>
<path fill="#6EC099" opacity="1.000000" stroke="none" 
	d="
M89.098389,252.407410 
	C89.434029,253.464218 89.701035,254.909088 89.965393,256.731995 
	C89.651764,255.671814 89.340759,254.233643 89.098389,252.407410 
z"/>
<path fill="#6EC099" opacity="1.000000" stroke="none" 
	d="
M143.641708,177.078323 
	C142.861343,177.421280 141.701324,177.695114 140.175156,177.967316 
	C140.960022,177.646866 142.111038,177.328033 143.641708,177.078323 
z"/>
<path fill="#000000" opacity="1.000000" stroke="none" 
	d="
M165.688385,183.902298 
	C167.097443,184.491409 168.201721,185.153946 169.611511,185.950027 
	C169.917038,186.083572 169.960327,186.026489 169.965271,186.450256 
	C169.955811,189.228790 169.941406,191.583588 169.926987,193.938370 
	C169.661057,194.126022 169.395126,194.313690 169.083694,195.087021 
	C169.080475,196.127884 169.122757,196.583054 169.165039,197.038239 
	C169.104538,197.449799 169.044037,197.861374 168.629425,198.781311 
	C168.234375,200.532578 168.193466,201.775452 168.152557,203.018341 
	C168.152542,203.018341 168.020203,203.439789 167.659958,203.877075 
	C166.923737,207.219772 166.547775,210.125198 166.171814,213.030609 
	C166.114624,213.432404 166.057449,213.834183 165.641754,214.767776 
	C164.820419,218.857208 164.357605,222.414856 163.894806,225.972488 
	C163.894791,225.972488 163.961319,225.975525 163.616440,226.157471 
	C162.799271,229.883896 162.326981,233.428375 161.854706,236.972839 
	C160.312408,244.393723 158.770111,251.814621 157.127197,260.059204 
	C156.685501,264.088531 156.255096,267.287994 156.031143,270.501831 
	C155.847061,273.143494 156.925949,273.790741 159.093735,272.063599 
	C159.093735,272.063599 159.032166,272.036011 159.414001,272.033508 
	C161.565994,271.374359 163.336136,270.717712 165.106277,270.061035 
	C165.106277,270.061035 165.006393,270.035645 165.391022,270.035522 
	C167.877014,269.372589 169.978378,268.709717 172.079727,268.046875 
	C172.079727,268.046875 172.017380,268.030273 172.397644,268.018311 
	C174.549942,267.352631 176.321976,266.698975 178.094009,266.045319 
	C181.961868,264.994934 185.829727,263.944580 190.140045,262.898376 
	C191.056015,264.549744 191.529510,266.196930 192.128036,268.134003 
	C188.760498,269.823669 185.341202,271.456451 181.762360,272.581909 
	C167.984451,276.914673 154.171768,281.139404 140.337418,285.288879 
	C134.931885,286.910278 132.464035,285.373108 133.158249,279.744781 
	C134.229889,271.056549 136.373260,262.500488 138.062820,253.888535 
	C141.038467,238.721237 144.014114,223.553925 146.990997,208.386871 
	C147.762619,204.455475 148.538910,200.524994 149.608887,195.091904 
	C136.226624,198.881668 124.178490,202.293594 112.044373,205.729889 
	C110.034889,202.578400 110.856384,200.501190 114.036652,199.499969 
	C122.230873,196.920181 130.476242,194.503250 138.693405,191.995804 
	C145.209305,190.007492 151.713669,187.981491 158.912659,185.954407 
	C160.097076,185.637848 160.591980,185.339127 161.086899,185.040421 
	C161.086899,185.040421 161.003647,185.005554 161.343842,185.008286 
	C162.499741,184.688477 163.315445,184.365936 164.131165,184.043396 
	C164.548645,184.020844 164.966125,183.998291 165.688385,183.902298 
z"/>
<path fill="#6EC099" opacity="1.000000" stroke="none" 
	d="
M163.791351,184.063812 
	C163.315445,184.365936 162.499741,184.688477 161.326447,185.049927 
	C161.796417,184.753983 162.623978,184.419098 163.791351,184.063812 
z"/>
<path fill="#6EC099" opacity="1.000000" stroke="none" 
	d="
M160.807617,185.084641 
	C160.591980,185.339127 160.097076,185.637848 159.291611,185.868317 
	C159.496811,185.576340 160.012558,185.352600 160.807617,185.084641 
z"/>
<path fill="#6EC099" opacity="1.000000" stroke="none" 
	d="
M158.789001,271.903320 
	C156.925949,273.790741 155.847061,273.143494 156.031143,270.501831 
	C156.255096,267.287994 156.685501,264.088531 157.081787,260.456329 
	C157.347458,262.595215 157.516022,265.165070 157.785477,267.724274 
	C157.927521,269.073425 158.245636,270.404083 158.789001,271.903320 
z"/>
<path fill="#6EC099" opacity="1.000000" stroke="none" 
	d="
M164.231873,225.788361 
	C164.357605,222.414856 164.820419,218.857208 165.631851,215.073456 
	C165.509964,218.432968 165.039459,222.018600 164.231873,225.788361 
z"/>
<path fill="#6EC099" opacity="1.000000" stroke="none" 
	d="
M162.125427,236.702423 
	C162.326981,233.428375 162.799271,229.883896 163.611023,226.124634 
	C163.432373,229.417221 162.914276,232.924606 162.125427,236.702423 
z"/>
<path fill="#6EC099" opacity="1.000000" stroke="none" 
	d="
M166.435791,212.764740 
	C166.547775,210.125198 166.923737,207.219772 167.638489,204.096893 
	C167.551437,206.752579 167.125610,209.625732 166.435791,212.764740 
z"/>
<path fill="#6EC099" opacity="1.000000" stroke="none" 
	d="
M170.167206,193.692627 
	C169.941406,191.583588 169.955811,189.228790 169.936172,186.429352 
	C172.180969,188.329178 172.487457,190.807220 170.167206,193.692627 
z"/>
<path fill="#6EC099" opacity="1.000000" stroke="none" 
	d="
M164.746902,270.042053 
	C163.336136,270.717712 161.565994,271.374359 159.420563,272.066620 
	C160.826019,271.409149 162.606781,270.716095 164.746902,270.042053 
z"/>
<path fill="#6EC099" opacity="1.000000" stroke="none" 
	d="
M177.691193,266.038300 
	C176.321976,266.698975 174.549942,267.352631 172.400757,268.050415 
	C173.778519,267.406769 175.533447,266.719025 177.691193,266.038300 
z"/>
<path fill="#6EC099" opacity="1.000000" stroke="none" 
	d="
M171.683655,268.036865 
	C169.978378,268.709717 167.877014,269.372589 165.378571,270.085541 
	C167.083496,269.432709 169.185532,268.729767 171.683655,268.036865 
z"/>
<path fill="#6EC099" opacity="1.000000" stroke="none" 
	d="
M168.338089,202.788727 
	C168.193466,201.775452 168.234375,200.532578 168.599854,199.092773 
	C168.790833,200.116943 168.657227,201.338043 168.338089,202.788727 
z"/>
<path fill="#6EC099" opacity="1.000000" stroke="none" 
	d="
M169.280609,196.847977 
	C169.122757,196.583054 169.080475,196.127884 169.115906,195.336884 
	C169.261124,195.553268 169.328644,196.105499 169.280609,196.847977 
z"/>
<path fill="#000000" opacity="1.000000" stroke="none" 
	d="
M266.954926,253.799072 
	C266.963806,251.024048 266.384521,248.487274 267.147980,246.454910 
	C267.892090,244.474167 270.009552,243.009323 271.524048,241.317993 
	C272.695679,242.908905 274.566315,244.372604 274.884155,246.118912 
	C275.437805,249.160843 275.003876,252.377396 275.040497,255.520081 
	C275.074829,258.461823 274.308746,261.377960 270.909668,260.755310 
	C269.340607,260.467896 268.225555,257.525055 266.994843,255.724487 
	C266.762817,255.385056 266.956940,254.754379 266.954926,253.799072 
z"/>
<path fill="#000000" opacity="1.000000" stroke="none" 
	d="
M390.122253,241.064316 
	C394.071564,241.205917 395.444458,242.995300 394.609192,246.743759 
	C392.315613,246.743759 390.083344,246.743759 387.672119,246.743759 
	C386.442474,244.166077 386.533875,242.122955 390.122253,241.064316 
z"/>
</svg>